# xmcd
#
# Track frame offsets: 
#        150
#        16769
#        40194
#        60847
#        75350
#        87757
#        100881
#        112593
#        123874
#        135521
#        146688
#        159699
#
# Disc length: 2273 seconds
#
# Revision: 0
# Processed by: cddbd v1.5.1PL0 Copyright (c) Steve Scherf et al.
# Submitted via: ExactAudioCopy v0.95a5
#
DISCID=8008df0c
DTITLE=Various Artist - Soul Essentials CD2
DYEAR=2000
DGENRE=Soul
TTITLE0=Aaron Neville - Struttin' On Sunday
TTITLE1=Bobby Womack - Falling In Love Again
TTITLE2=Curtis Mayfield And Linda Clifford - Rock You To Your Socks
TTITLE3=Natural Four - Night Change
TTITLE4=Ann Sexton - Colour My World Blue
TTITLE5=Arnold Blair - Trying To Get Next To You
TTITLE6=Deneice Chandler - It's You I Need
TTITLE7=The Admirations - Don't Leave Me
TTITLE8=Liz Lands - Don't Shut Me Out
TTITLE9=Friend Of E rodney Jones - Soul Heaven
TTITLE10=Bobby Mack - Malnutrition
TTITLE11=The Sharpess - Just To Please You
EXTD=
EXTT0=
EXTT1=
EXTT2=
EXTT3=
EXTT4=
EXTT5=
EXTT6=
EXTT7=
EXTT8=
EXTT9=
EXTT10=
EXTT11=
PLAYORDER=
